# xmcd CD database file
#
# Track frame offsets:
#	150
#	16275
#	35815
#	58350
#	81285
#	107805
#	137420
#	156827
#	178210
#	192755
#	224852
#
# Disc length: 3213 seconds
#
# Revision: 0
# Processed by: cddbd v1.5.2PL0 Copyright (c) Steve Scherf et al.
# Submitted via: CDex 1.51
#
DISCID=a50c8b0b
DTITLE=Theo Saunders - Theo Saunders Trio
DYEAR=1900
DGENRE=Jazz
TTITLE0=The Kicker
TTITLE1=In A Sentimonkal Mood
TTITLE2=When You Wish Upon A Star
TTITLE3=Nardis
TTITLE4=Wish From The Heart
TTITLE5=Cry Me A River
TTITLE6=Come Rain Or Come Shine
TTITLE7=Waiting For You
TTITLE8=Ellie's Night Out
TTITLE9=If I Should Lose You
TTITLE10=Misterioso
EXTD=
EXTT0=
EXTT1=
EXTT2=
EXTT3=
EXTT4=
EXTT5=
EXTT6=
EXTT7=
EXTT8=
EXTT9=
EXTT10=
PLAYORDER=
